# xmcd
#
# Track frame offsets: 
#        182
#        15767
#        35135
#        58167
#        73742
#        95055
#        119472
#        150377
#        177067
#        194067
#        211957
#        243007
#
# Disc length: 3546 seconds
#
# Revision: 6
# Processed by: cddbd v1.5.2PL0 Copyright (c) Steve Scherf et al.
# Submitted via: ExactAudioCopy v1.0b3
#
DISCID=a20dd80c
DTITLE=Red Devils - King King
DYEAR=1992
DGENRE=Blues
TTITLE0=Automatic
TTITLE1=Goin' to the Church
TTITLE2=She's Dangerous
TTITLE3=I Wish You Would
TTITLE4=Cross Your Heart
TTITLE5=Tail Dragger
TTITLE6=Devil Woman
TTITLE7=No Fightin'
TTITLE8=Mr. Highway Man
TTITLE9=I'm Ready
TTITLE10=Quarter to Twelve
TTITLE11=Cut That Out
EXTD=YEAR: 1992 ID3G: 0
EXTT0=
EXTT1=
EXTT2=
EXTT3=
EXTT4=
EXTT5=
EXTT6=
EXTT7=
EXTT8=
EXTT9=
EXTT10=
EXTT11=
PLAYORDER=
